#N canvas 948 189 465 349 10;
#X obj 213 65 pdlua;
#X msg 213 217 bla;
#X msg 47 44 novalue;
#X text 47 298 create with '-threevalues x y z' etc. to test flags;
#X msg 64 122 threevalues 4 5 6;
#X msg 213 254 blubb;
#X msg 64 152 threevalues 7 8;
#X msg 79 189 thirdvalue foo;
#X msg 87 220 thirdvalue bar;
#X text 240 160 list message;
#X msg 57 84 onevalue anything;
#X msg 213 160 9 9;
#X msg 213 44 load flames_demo.pd_lua;
#X obj 46 278 flames_demo bar 4 5 bar 9 9;
#X connect 1 0 13 0;
#X connect 2 0 13 0;
#X connect 4 0 13 0;
#X connect 5 0 13 1;
#X connect 6 0 13 0;
#X connect 7 0 13 0;
#X connect 8 0 13 0;
#X connect 10 0 13 0;
#X connect 11 0 13 0;
#X connect 12 0 0 0;
