#N canvas 736 160 515 299 10;
#X obj 243 65 pdlua;
#X msg 243 131 bla;
#X msg 47 44 novalue;
#X msg 243 44 load flames/flames.pd_lua;
#X obj 46 234 flames 4 5 6 foo;
#X msg 64 126 threevalues 3 2 1;
#X text 153 234 create with '-threevalues x y z' etc. to test flags;
#X msg 64 96 threevalues 4 5 6;
#X msg 79 195 onevalue bar;
#X msg 79 165 onevalue foo;
#X msg 243 172 blubb;
#X connect 1 0 4 0;
#X connect 2 0 4 0;
#X connect 3 0 0 0;
#X connect 5 0 4 0;
#X connect 7 0 4 0;
#X connect 8 0 4 0;
#X connect 9 0 4 0;
#X connect 10 0 4 1;
