#N canvas 389 264 465 299 10;
#X obj 213 65 pdlua;
#X msg 213 173 bla;
#X msg 47 44 novalue;
#X text 47 254 create with '-threevalues x y z' etc. to test flags;
#X msg 64 78 threevalues 4 5 6;
#X msg 213 210 blubb;
#X msg 213 44 load flames_demo/flames_demo.pd_lua;
#X msg 64 108 threevalues 7 8;
#X msg 79 145 thirdvalue foo;
#X msg 87 176 thirdvalue bar;
#X obj 46 234 flames_demo 7 8 foo;
#X connect 1 0 10 0;
#X connect 2 0 10 0;
#X connect 4 0 10 0;
#X connect 5 0 10 1;
#X connect 6 0 0 0;
#X connect 7 0 10 0;
#X connect 8 0 10 0;
#X connect 9 0 10 0;
