#N canvas 512 178 450 300 10;
#X obj 243 65 pdlua;
#X msg 252 159 bla;
#X msg 245 131 bla;
#X msg 47 103 novalue;
#X msg 63 136 threevalues 1 foo 1 2 3;
#X msg 79 165 onevalue baz 2;
#X obj 56 221 flames 1 foo 1 baz;
#X msg 243 44 load flames/flames.pd_lua;
#X connect 1 0 6 1;
#X connect 2 0 6 0;
#X connect 3 0 6 0;
#X connect 4 0 6 0;
#X connect 5 0 6 0;
#X connect 7 0 0 0;
