#N canvas 736 160 515 340 10;
#X obj 243 65 pdlua;
#X msg 252 159 bla;
#X msg 245 131 bla;
#X msg 47 103 novalue;
#X msg 243 44 load flames/flames.pd_lua;
#X obj 46 234 flames 3 2 1 foo;
#X msg 79 165 onevalue foo;
#X msg 64 136 threevalues 3 2 1;
#X text 153 234 create with '-threevalues x y z' etc. to test flags;
#X connect 1 0 5 1;
#X connect 2 0 5 0;
#X connect 3 0 5 0;
#X connect 4 0 0 0;
#X connect 6 0 5 0;
#X connect 7 0 5 0;
