#N canvas 704 290 515 299 10;
#X obj 203 65 pdlua;
#X msg 203 173 bla;
#X msg 47 44 novalue;
#X text 47 254 create with '-threevalues x y z' etc. to test flags;
#X msg 64 78 threevalues 4 5 6;
#X msg 87 176 onevalue bar;
#X msg 79 145 onevalue foo;
#X msg 203 210 blubb;
#X msg 203 44 load flames_demo/flames_demo.pd_lua;
#X obj 292 146 osc~;
#X msg 314 115 bla;
#X msg 64 108 threevalues 7 8;
#X obj 46 234 flames_demo -onevalue hi;
#X connect 1 0 12 0;
#X connect 2 0 12 0;
#X connect 4 0 12 0;
#X connect 5 0 12 0;
#X connect 6 0 12 0;
#X connect 7 0 12 1;
#X connect 8 0 0 0;
#X connect 10 0 9 0;
#X connect 11 0 12 0;
