#N canvas 736 160 450 340 10;
#X obj 243 65 pdlua;
#X msg 252 159 bla;
#X msg 245 131 bla;
#X msg 47 103 novalue;
#X msg 243 44 load flames/flames.pd_lua;
#X msg 79 165 onevalue bar;
#X msg 64 136 threevalues 9 8;
#X obj 46 234 flames 9 8 8 0;
#X connect 1 0 7 1;
#X connect 2 0 7 0;
#X connect 3 0 7 0;
#X connect 4 0 0 0;
#X connect 5 0 7 0;
#X connect 6 0 7 0;
